<svg width="804" height="666" viewBox="0 0 804 666" fill="none" xmlns="http://www.w3.org/2000/svg">
<path d="M723.569 173.25L723.57 173.251C791.413 262.957 818.954 359.196 794.841 445.471C770.723 531.768 694.899 608.209 599.504 643.131C504.121 677.576 388.578 670.039 270.668 635.56C211.715 618.321 152.204 594.237 104.134 564.085C56.0516 533.926 19.4871 497.739 6.3053 456.323L6.30505 456.322C-6.87201 415.155 3.28027 368.52 27.7094 320.491C52.1349 272.47 90.7974 223.129 134.515 176.6C178.518 129.837 227.684 85.8052 279.424 53.4667C331.166 21.1271 385.452 0.500286 439.704 0.5C547.655 0.9721 656.283 83.5195 723.569 173.25Z" stroke="black"/>
</svg>
